<?xml version="1.0" encoding="UTF-8" standalone="no"?>
<svg
   version="1.1"
   id="Layer_1"
   x="0px"
   y="0px"
   width="152.86983"
   height="152.86983"
   viewBox="0 0 152.86983 152.86983"
   enable-background="new 0 0 209 181"
   xml:space="preserve"
   sodipodi:docname="icon.svg"
   inkscape:version="1.1 (c68e22c387, 2021-05-23)"
   xmlns:inkscape="http://www.inkscape.org/namespaces/inkscape"
   xmlns:sodipodi="http://sodipodi.sourceforge.net/DTD/sodipodi-0.dtd"
   xmlns="http://www.w3.org/2000/svg"
   xmlns:svg="http://www.w3.org/2000/svg"><defs
     id="defs64" /><sodipodi:namedview
     id="namedview62"
     pagecolor="#ffffff"
     bordercolor="#666666"
     borderopacity="1.0"
     inkscape:pageshadow="2"
     inkscape:pageopacity="0.0"
     inkscape:pagecheckerboard="true"
     showgrid="false"
     inkscape:zoom="4.5524862"
     inkscape:cx="84.898665"
     inkscape:cy="79.95631"
     inkscape:window-width="1920"
     inkscape:window-height="1058"
     inkscape:window-x="1913"
     inkscape:window-y="-6"
     inkscape:window-maximized="1"
     inkscape:current-layer="g59"
     units="px" /><g
     id="g59"
     transform="translate(-19.480298,-10.463153)"><radialGradient
       id="SVGID_1_"
       cx="1459.7881"
       cy="784.59961"
       r="220.3186"
       fx="1459.7081"
       fy="597.5968"
       gradientTransform="matrix(0.3317,0,0,0.3317,-388.2039,-173.51701)"
       gradientUnits="userSpaceOnUse"><stop
         offset="0.2"
         style="stop-color:#E03C3B"
         id="stop2" /><stop
         offset="0.652"
         style="stop-color:#E03C3B"
         id="stop4" /><stop
         offset="0.722"
         style="stop-color:#DD3C3B"
         id="stop6" /><stop
         offset="0.775"
         style="stop-color:#D33B3A"
         id="stop8" /><stop
         offset="0.822"
         style="stop-color:#C33938"
         id="stop10" /><stop
         offset="0.866"
         style="stop-color:#AC3736"
         id="stop12" /><stop
         offset="0.908"
         style="stop-color:#8E3434"
         id="stop14" /><stop
         offset="0.949"
         style="stop-color:#6A3030"
         id="stop16" /><stop
         offset="0.987"
         style="stop-color:#3F2C2C"
         id="stop18" /><stop
         offset="1"
         style="stop-color:#2F2A2B"
         id="stop20" /></radialGradient><path
       fill="url(#SVGID_1_)"
       d="m 24.239002,90.42149 c 0,-39.674 32.164,-71.836 71.836,-71.836 39.672998,0 71.835998,32.162 71.835998,71.836 0,39.674 -32.162,71.836 -71.835998,71.836 -39.67,0 -71.836,-32.16 -71.836,-71.836 z"
       id="path23"
       style="fill:url(#SVGID_1_)" /><path
       fill="#232323"
       d="m 43.887002,109.14749 c -1.199,-7.593 1.846,-12.896 4.862,-15.854 1.369,-1.342 2.987,-2.572 4.442,-2.52 2.148,-0.167 13.354,7.999 28.322,17.122 7.79,5.631 11.433,6.314 11.411,8.805 v -0.393 c -0.981,6.258 -6.126,13.838 -13.265,15.605 -17.181,5.192 -32.204,-5.567 -35.772,-22.765 z"
       id="path25" /><path
       fill="#232323"
       d="m 96.074002,162.91749 c -19.365,0 -37.571,-7.54 -51.265,-21.234 -13.694,-13.693 -21.236,-31.899 -21.236,-51.265 0,-19.364 7.541,-37.57 21.235,-51.265 13.693,-13.693 31.899,-21.235 51.265,-21.235 19.365998,0 37.569998,7.541 51.264998,21.235 13.693,13.692 21.235,31.898 21.235,51.265 0,19.367 -7.542,37.573 -21.235,51.265 -13.693,13.693 -31.9,21.234 -51.263998,21.234 z m 0,-143.672 c -39.246,0 -71.173,31.928 -71.173,71.173 0,39.246 31.927,71.173 71.173,71.173 19.010998,0 36.882998,-7.402 50.324998,-20.846 13.442,-13.444 20.847,-31.316 20.847,-50.326 0,-39.246 -31.929,-71.173 -71.172998,-71.173 z"
       id="path27" /><path
       fill="#232323"
       d="m 148.264,109.14749 c 1.199,-7.593 -1.846,-12.896 -4.862,-15.854 -1.369,-1.342 -2.987,-2.572 -4.442,-2.52 -2.148,-0.167 -13.354,7.999 -28.322,17.122 -7.789,5.631 -11.431998,6.314 -11.410998,8.805 v -0.393 c 0.980998,6.258 6.126998,13.838 13.264998,15.605 17.18,5.192 32.203,-5.567 35.772,-22.765 z"
       id="path29" /><path
       fill="#ffffff"
       d="m 101.404,114.58249 c -1.256,0.675 -1.500998,1.278 -1.105,2.626 1.041,3.563 2.581,6.371 4.555,8.527 4.779,5.222 12.098,6.623 21.049,5.637 7.629,-1.236 11.338,-3.568 17.03,-10.646 2.503,-4.976 5.804,-12.081 2.054,-20.343 -1.043,-2.3 -2.671,-4.186 -4.578,-5.834 -0.707,-0.609 -1.273,-0.639 -2.089,-0.187 -3.485,1.946 -30.073,16.544 -36.913,20.219 h -0.003 z"
       id="path31" /><path
       fill="#dadada"
       d="m 126.408,123.70849 c -12.236,3.579 -23.719,-0.9 -23.719,-0.9 0,0 5.373,9.535 18.559,9.472 15.168,-1.169 21.056,-9.581 23.668,-15.069 2.609,-5.489 1.905,-10.553 1.484,-12.482 -0.421,-1.933 -2.023,13.828 -19.992,18.979 z"
       id="path33" /><path
       fill="#ffffff"
       d="m 90.905002,114.58249 c 1.256,0.675 1.501,1.278 1.107,2.626 -1.042,3.563 -2.582,6.371 -4.555,8.527 -4.779,5.222 -12.098,6.623 -21.048,5.637 -7.629,-1.236 -11.338,-3.568 -17.031,-10.646 -2.504,-4.976 -5.804,-12.081 -2.055,-20.343 1.045,-2.3 2.671,-4.186 4.579,-5.834 0.707,-0.609 1.273,-0.639 2.088,-0.187 3.487,1.946 30.074,16.544 36.914,20.219 h 10e-4 z"
       id="path35" /><path
       fill="#dadada"
       d="m 65.905002,123.70849 c 12.236,3.579 23.718,-0.9 23.718,-0.9 0,0 -5.372,9.535 -18.558,9.472 -15.167,-1.169 -21.056,-9.581 -23.667,-15.069 -2.61,-5.489 -1.907,-10.553 -1.484,-12.482 0.42,-1.933 2.023,13.828 19.991,18.979 z"
       id="path37" /><path
       fill="#020202"
       d="m 125.064,114.85649 c 1.535,7.05 1.311,15.639 1.311,15.639 0.008,0.439 0.008,0.439 0.311,1.422 2.238,-4.229 3.486,-8.68 3.957,-13.35 0.607,-6.021 -0.279,-10.992 -3.117,-18.295 -1.889,-3.441 -3.779,-6.852 -6.441,-9.813 -4.033,-4.488 -5.771,-3.136 -10.41,-0.569 -0.449,0.339 -1.364,1.24 -1.364,1.24 5.066,3.234 12.197,8.42 15.753,23.726 z"
       id="path39" /><path
       fill="#e03a36"
       d="m 52.618002,64.77749 c 2.181,-1.38 4.529,-3.885 5.903,-8.007 2.082,-6.64 0.361,-9.791 0.361,-9.791 0,0 -1.853,1.447 -6.625,0.054 -4.969,-1.452 -7.208,-1.7 -16.037,-10.321 -10.308,-10.496 -15.216,-21.988 -15.216,-21.988 0,0 0,2.992 0.402,5.986 0,0 2.167,13.15 11.485,25.115 6.06,7.781 12.333,12.736 15.143,14.478 3.371,2.088 4.584,2.571 4.584,4.474"
       id="path41" /><path
       fill="#232323"
       d="m 21.408002,20.71149 c -0.194,-1.991 -0.328,-3.987 -0.402,-5.986 5.908,12.803 15.89,24.14 24.266,29.614 2.171,1.418 4.833,2.152 6.987,2.695 4.75,1.197 6.591,0.209 7.018,-0.492 0.39,-0.641 0.308,-1.508 -0.246,-2.579 -0.711,-1.375 -2.019,-2.042 -4,-2.042 -1.578,0 -3.387,0.436 -4.987,0.806 -3.39,0.784 -3.814,0.369 -3.814,0.369 -7.356,-4.799 -17.64,-14.057 -24.912,-30.928 -0.458,-1.063 -0.597,-1.382 -1.158,-1.268 -0.561,0.113 -0.538,0.675 -0.538,0.675 -0.78,8.043 1.383,30.677 13.496,48.037 0.81,1.161 1.479,2.071 1.777,2.905 1.033,2.887 -0.724,5.975 -0.724,5.975 -2.141,4.293 -0.54,14.038 3.615,14.366 2.411,0.19 3.892,-3.653 5.032,-5.429 1.139,-1.776 5.151,-6.376 7.618,-9.048 2.466,-2.672 3.146,-4.496 0.519,-6.331 -1.549,-1.083 -2.918,-1.746 -2.918,-1.746 0,0 -7.645,-4.638 -15.4,-14.797 -9.062,-11.871 -11.229,-24.797 -11.229,-24.796 z"
       id="path43" /><path
       fill="#e03a36"
       d="m 139.214,64.77749 c -2.181,-1.38 -4.528,-3.885 -5.903,-8.007 -2.082,-6.64 -0.361,-9.791 -0.361,-9.791 0,0 1.854,1.447 6.625,0.054 4.969,-1.452 7.209,-1.7 16.037,-10.321 10.309,-10.496 15.217,-21.987 15.217,-21.987 0,0 0,2.992 -0.402,5.986 0,0 -2.167,13.15 -11.485,25.115 -6.06,7.781 -12.333,12.736 -15.144,14.478 -3.371,2.087 -4.584,2.57 -4.584,4.473"
       id="path45" /><path
       fill="#232323"
       d="m 170.425,20.71149 c 0.193,-1.991 0.327,-3.987 0.401,-5.986 -5.908,12.803 -15.89,24.14 -24.267,29.614 -2.171,1.418 -4.833,2.152 -6.985,2.695 -4.751,1.197 -6.592,0.209 -7.019,-0.492 -0.39,-0.641 -0.308,-1.508 0.245,-2.579 0.711,-1.375 2.02,-2.042 4,-2.042 1.578,0 3.387,0.436 4.987,0.806 3.39,0.784 3.814,0.369 3.814,0.369 7.356,-4.799 17.641,-14.057 24.912,-30.927 0.459,-1.063 0.597,-1.382 1.158,-1.269 0.561,0.113 0.538,0.676 0.538,0.676 0.778,8.043 -1.384,30.677 -13.496,48.037 -0.811,1.161 -1.479,2.07 -1.777,2.905 -1.033,2.887 0.725,5.975 0.725,5.975 2.141,4.293 0.54,14.038 -3.615,14.366 -2.41,0.19 -3.893,-3.652 -5.031,-5.429 -1.14,-1.776 -5.151,-6.376 -7.619,-9.048 -2.467,-2.672 -3.146,-4.496 -0.518,-6.332 1.549,-1.083 2.917,-1.746 2.917,-1.746 0,0 7.646,-4.638 15.401,-14.797 9.062,-11.871 11.229,-24.797 11.229,-24.796 z"
       id="path47" /><path
       fill="#020202"
       d="m 67.083002,114.85649 c -1.534,7.05 -1.311,15.639 -1.311,15.639 -0.007,0.439 -0.007,0.439 -0.31,1.422 -2.237,-4.229 -3.486,-8.68 -3.956,-13.35 -0.606,-6.021 0.28,-10.992 3.118,-18.295 1.888,-3.441 3.778,-6.852 6.441,-9.813 4.034,-4.488 5.771,-3.136 10.412,-0.569 0.449,0.339 1.364,1.24 1.364,1.24 -5.07,3.234 -12.202,8.42 -15.758,23.726 z"
       id="path49" /></g></svg>
